<?xml version="1.0" encoding="UTF-8" standalone="no"?>
<svg
   version="1.1"
   id="svg_logo"
   width="236"
   height="401"
   viewBox="0 0 236 401"
   xmlns="http://www.w3.org/2000/svg"
   xmlns:svg="http://www.w3.org/2000/svg">
  <defs>
    <linearGradient id="logo-gradient" x1="0%" y1="0%" x2="100%" y2="100%">
      <stop offset="0%" style="stop-color:#4BC3FF;stop-opacity:1" />
      <stop offset="100%" style="stop-color:#256DFF;stop-opacity:1" />
    </linearGradient>
    <filter id="glow">
      <feGaussianBlur stdDeviation="5" result="coloredBlur"/>
      <feMerge>
        <feMergeNode in="coloredBlur"/>
        <feMergeNode in="SourceGraphic"/>
      </feMerge>
    </filter>
  </defs>
  <g id="g1">
    <path
       style="fill:url(#logo-gradient);filter:url(#glow)"
       d="m 157.18856,392.96104 c -2.02334,-1.88502 -2.19836,-3.03631 -2.3184,-15.25 -0.19377,-19.71534 0.22867,-29.99627 1.31676,-32.0457 1.53931,-2.89931 7.15079,-4.66534 14.82387,-4.66534 6.70453,0 7.35246,-0.20946 12.37299,-4 2.91387,-2.2 6.26957,-4 7.45709,-4 1.87402,0 2.15868,-0.56121 2.15574,-4.25 -0.005,-5.95383 -4.06792,-20.48959 -7.24086,-25.90381 -3.9672,-6.76951 -14.15733,-17.65305 -22.16746,-23.67589 C 155.9006,273.38991 138.80631,263 136.98365,263 c -0.62013,0 -3.00764,-1.0895 -5.30558,-2.42111 C 129.38013,259.24728 117.6,253.82195 105.5,248.5226 59.136531,228.21711 53.251847,225.30337 40.251257,216.21531 32.286604,210.64762 17.748641,196.96041 14.072212,191.56825 5.3488437,178.77381 2.6084038,169.94597 3.1849178,156.49676 c 0.3406088,-7.94589 0.7683103,-9.67156 3.6418553,-14.69399 3.9165729,-6.84546 8.0403759,-9.61685 16.4543409,-11.0581 5.893662,-1.00954 6.602061,-0.90925 12.604449,1.78446 l 6.359825,2.85412 2.127306,-2.93215 C 51.750717,122.2817 57.077883,118.93804 67,118.24882 c 7.214411,-0.50114 15.458958,2.02117 19.861118,6.07623 3.016193,2.77837 10.679704,12.70922 11.324476,14.67495 0.722691,2.20328 3.234976,-3.16499 5.147856,-11 C 105.79066,117.93549 107,105.80042 107,91.20814 V 77.863812 l -2.93826,2.092223 c -1.61604,1.150722 -4.154051,4.577225 -5.640027,7.614451 -1.849156,3.779537 -3.209844,5.419625 -4.311744,5.197102 -2.731865,-0.551688 -1.890507,-8.342906 1.685535,-15.608543 2.074047,-4.213952 2.635871,-6.154821 1.674891,-5.786058 -3.537289,1.357385 -11.367699,1.731754 -15.115213,0.722654 -8.969872,-2.415336 -12.108045,-7.205681 -12.97926,-19.812522 -0.587729,-8.504671 -0.52573,-8.8584 1.955632,-11.157716 5.249055,-4.863956 15.35134,-4.503713 23.094223,0.82353 l 4.196662,2.887379 -0.41824,-11.168156 C 97.852984,24.289754 98.110107,21.582469 99.80866,16.774563 102.11679,10.241192 105.7654,6.5170346 111.40923,4.9337982 120.56384,2.3656963 127.19849,6.9220518 133.34758,20 c 3.32125,7.063674 4.00976,9.598367 4.0745,15 0.0429,3.575 -0.30012,7.544691 -0.76217,8.821535 -0.8116,2.242805 -0.70277,2.222056 3.20927,-0.61181 6.95828,-5.040555 9.51714,-5.715809 14.479,-3.820857 C 161.93057,42.284611 166,48.610436 166,57.50134 c 0,9.148629 -6.82284,13.863089 -19.25225,13.302953 -3.71374,-0.167361 -6.75124,-0.04167 -6.75,0.279317 0.006,1.486768 7.98909,8.885442 12.25225,11.354935 2.6125,1.513324 4.75,3.128414 4.75,3.589089 0,3.245796 -11.72241,0.146558 -15.58368,-4.120104 C 140.46686,80.858388 139.37835,80 138.99742,80 c -0.38094,0 -0.98305,5.0625 -1.33803,11.25 -0.35497,6.1875 -1.54152,17.55 -2.63676,25.25 -2.39434,16.83323 -2.51228,24.7652 -0.5228,35.16203 0.8249,4.31088 1.4999,7.95047 1.5,8.08797 9e-5,0.1375 -1.30169,0.25 -2.89284,0.25 -3.73673,0 -4.13038,-1.14498 -4.81315,-14 -0.51693,-9.73245 0.31164,-19.30476 2.89971,-33.5 0.50138,-2.75 1.16109,-11.60064 1.46602,-19.668086 0.55214,-14.607835 0.54306,-14.688962 -2.2115,-19.75 -1.5247,-2.801361 -3.47993,-5.086853 -4.357,-5.09292 -0.87509,-0.0061 -3.24238,-0.284059 -5.26065,-0.617792 -3.47889,-0.575254 -3.77142,-0.405786 -5.62919,3.261006 -1.64905,3.254812 -2.06819,6.878974 -2.64472,22.867792 -0.58009,16.08748 -1.1459,20.94144 -3.69113,31.6651 -2.0038,8.44252 -3.98279,14.20531 -5.9357,17.28473 -1.61132,2.5408 -2.92968,5.054 -2.92968,5.5849 0,1.60891 -4.002188,5.08195 -5.085033,4.41272 -0.670675,-0.4145 -0.638289,-1.0759 0.09601,-1.96067 1.612056,-1.94241 0.247387,-7.68782 -3.067627,-12.91506 -5.134825,-8.09678 -18.363744,-14.93329 -26.919612,-13.91166 -7.685653,0.91773 -15.782465,8.61218 -19.111464,18.16175 -1.380117,3.95901 -2.251088,3.9659 -6.707529,0.0531 -6.853345,-6.01731 -13.450898,-7.32801 -19.994581,-3.97222 -7.892668,4.0476 -11.5628934,10.88109 -11.4125176,21.24867 0.2566225,17.69271 7.4807676,30.52148 25.9512126,46.08465 4.813128,4.05554 10.551143,8.47313 12.751143,9.81688 11.32893,6.91965 26.155747,14.52852 34.249521,17.57628 3.437236,1.29431 7.037236,2.78799 8,3.31928 0.962763,0.5313 5.350479,2.51757 9.750479,4.41395 52.910418,22.80411 72.374028,34.81506 86.008028,53.07533 8.78349,11.76389 11.66912,19.00329 13.07899,32.81228 0.62769,6.14782 0.89161,6.75 2.95841,6.75 1.4697,0 3.9224,1.83872 6.96124,5.21864 l 4.69201,5.21865 10.15066,0.38814 c 7.30673,0.2794 10.64096,0.8219 11.90066,1.93634 1.5652,1.38472 1.75,3.8366 1.75,23.2189 0,21.35916 -0.0333,21.70196 -2.31445,23.84502 -2.28781,2.14928 -2.7288,2.17431 -38.31144,2.17431 -34.84398,0 -36.06709,-0.0653 -38.18555,-2.03896 z m 47.56137,-8.62366 c 5.24694,-3.9174 6.75144,-7.01633 6.73161,-13.86552 -0.029,-10.0089 -5.25173,-15.57273 -15.2181,-16.21195 -7.43262,-0.47672 -11.93112,1.74151 -15.04312,7.4178 -5.21987,9.52104 -1.30853,21.48963 8.07081,24.69651 4.70512,1.60872 11.83406,0.66942 15.4588,-2.03684 z M 191.5,383.52571 c -4.52796,-1.6193 -9.11205,-6.48288 -10.02405,-10.63521 -0.86631,-3.9443 2.61594,-11.37389 6.18641,-13.19906 8.21452,-4.19915 15.88446,-2.32475 19.29219,4.71468 2.56145,5.29123 2.5877,9.1923 0.0894,13.28955 -3.67205,6.02233 -9.20424,8.09728 -15.544,5.83004 z m 35.91821,-25.1327 C 228.2882,358.05917 229,356.70917 229,355.39301 229,353.0969 228.71654,353 222,353 h -7 v 3 c 0,2.96421 0.0646,3 5.41821,3 2.98002,0 6.13002,-0.27314 7,-0.60699 z m -56.62147,-8.5761 c 0.2384,-1.23787 -0.2038,-1.52322 -1.73851,-1.12189 -1.13203,0.29604 -2.05823,1.19375 -2.05823,1.99494 0,1.99924 3.39389,1.21882 3.79674,-0.87305 z M 102.59492,65.95405 c 3.70041,-1.791339 6.17686,-4.515605 5.09148,-5.600987 -0.19838,-0.198375 -3.61435,-1.18696 -7.59106,-2.196855 -6.970675,-1.770224 -11.59036,-1.695013 -19.816475,0.322624 -3.004662,0.73696 -4.819054,4.165354 -3.222498,6.089086 3.157239,3.80424 18.790606,4.652757 25.538553,1.386132 z m 54.882,-2.125489 c 2.63925,-1.202521 4.16978,-4.700902 3.18238,-7.27404 -0.30602,-0.797473 -1.8848,-2.136892 -3.5084,-2.976488 -2.73333,-1.413457 -3.46372,-1.352491 -9.85996,0.823012 -7.02517,2.389415 -13.75571,5.493547 -13.13387,6.057355 0.18861,0.17101 2.13627,1.262829 4.32812,2.426264 4.53111,2.405109 14.6779,2.909409 18.99173,0.943897 z M 122.42974,60.88631 c -0.72306,-1.169936 -5.15411,-1.141308 -5.88297,0.03801 -0.6715,1.086519 2.19855,1.859557 4.69198,1.263767 0.95632,-0.228506 1.49226,-0.814305 1.19099,-1.301775 z M 89.25,52.454608 C 92.9625,52.11702 96,51.588739 96,51.280649 96,49.285238 83.752673,43.024106 79.821429,43.009769 76.016427,42.995892 74,45.463134 74,50.132701 v 3.989845 l 4.25,-0.527071 c 2.3375,-0.289889 7.2875,-0.803279 11,-1.140867 z m 60.53369,-3.410744 c 2.90602,-0.692729 6.16852,-1.028117 7.25,-0.745306 2.53879,0.663911 2.48427,-0.118312 -0.208,-2.984107 -4.1374,-4.404057 -11.26157,-2.088008 -18.81163,6.115614 l -2.48594,2.701132 4.48594,-1.913912 c 2.46727,-1.052652 6.8636,-2.480691 9.76963,-3.173421 z m -20.54387,-0.390195 c 4.76019,-5.892484 4.92054,-15.284181 0.42631,-24.969209 C 123.75021,10.935698 117.4163,6.1820044 110.86174,9.5714961 102.02861,14.139284 98.491962,34.860303 104.98831,43.983577 c 5.26211,7.389963 19.79368,10.188293 24.25151,4.670092 z"
       id="path1" />
  </g>
</svg>
